<?xml version="1.0" standalone="no"?>
<!DOCTYPE svg PUBLIC "-//W3C//DTD SVG 20010904//EN"
 "http://www.w3.org/TR/2001/REC-SVG-20010904/DTD/svg10.dtd">
<svg version="1.0" xmlns="http://www.w3.org/2000/svg"
 width="100.000000pt" height="100.000000pt" viewBox="0 0 100.000000 100.000000"
 preserveAspectRatio="xMidYMid meet">

<g transform="translate(0.000000,100.000000) scale(0.100000,-0.100000)"
fill="#000000" stroke="none">
<path d="M40 855 c0 -8 9 -15 20 -15 11 0 20 -2 20 -5 0 -3 -18 -41 -40 -85
-47 -93 -53 -157 -20 -190 11 -11 29 -20 40 -20 19 0 20 -7 20 -210 l0 -210
250 0 250 0 0 210 0 210 42 0 c40 0 41 1 24 19 -10 11 -21 46 -26 83 -4 35
-12 81 -18 103 -26 102 -27 95 21 95 l43 0 42 -85 c46 -93 54 -153 26 -193
l-15 -22 60 0 61 0 0 -210 0 -210 40 0 40 0 0 208 c0 196 -1 210 -20 227 -13
12 -20 31 -20 57 0 26 -15 68 -45 128 -25 49 -45 92 -45 95 0 3 38 5 85 5 69
0 85 3 85 15 0 13 -58 15 -460 15 -402 0 -460 -2 -460 -15z m290 -24 c0 -6
-18 -43 -40 -83 -30 -54 -40 -85 -40 -118 0 -25 -7 -56 -16 -68 l-15 -22 97 0
c93 0 96 1 81 18 -23 25 -22 116 1 207 l18 70 42 3 42 3 0 -128 c0 -100 -3
-133 -16 -151 -15 -21 -14 -22 20 -22 l36 0 0 -190 0 -190 -187 2 -188 3 -3
191 c-2 155 -5 194 -17 204 -10 8 -15 31 -15 66 0 44 8 71 40 134 l40 80 60 0
c33 0 60 -4 60 -9z"/>
<path d="M210 440 l0 -60 60 0 c59 0 60 0 60 29 0 16 3 43 6 60 l7 31 -67 0
-66 0 0 -60z"/>
<path d="M374 469 c3 -17 6 -44 6 -60 0 -29 1 -29 60 -29 l60 0 0 60 0 60 -66
0 -66 0 6 -31z"/>
<path d="M210 270 l0 -60 60 0 60 0 0 60 0 60 -60 0 -60 0 0 -60z"/>
<path d="M380 270 l0 -60 60 0 60 0 0 60 0 60 -60 0 -60 0 0 -60z"/>
<path d="M620 420 l0 -80 85 0 85 0 0 80 0 80 -85 0 -85 0 0 -80z"/>
<path d="M620 205 l0 -85 85 0 85 0 0 85 0 85 -85 0 -85 0 0 -85z"/>
<path d="M0 60 c0 -20 7 -20 500 -20 493 0 500 0 500 20 0 20 -7 20 -500 20
-493 0 -500 0 -500 -20z"/>
</g>
</svg>
