<svg xmlns="http://www.w3.org/2000/svg" xmlns:xlink="http://www.w3.org/1999/xlink" version="1.1" width="1000" height="1000" viewBox="0 0 1000 1000" xml:space="preserve">
<desc>Created with Fabric.js 3.5.0</desc>
<defs>
</defs>
<rect x="0" y="0" width="100%" height="100%" fill="#ffffff"/>
<g transform="matrix(0.1875 0 0 0.1875 119.835 93.4545)" id="131008">
<g style="" vector-effect="non-scaling-stroke">
		<g transform="matrix(1 0 0 1 207.0185 -64.391)" id="Layer_1">
<path style="stroke: none; stroke-width: 1; stroke-dasharray: none; stroke-linecap: butt; stroke-dashoffset: 0; stroke-linejoin: miter; stroke-miterlimit: 4; is-custom-font: none; font-file-url: none; fill: rgb(199,207,226); fill-rule: nonzero; opacity: 1;" transform=" translate(-463.0185, -191.609)" d="M 437.141 170.704 v 15.933 c 0 14.124 11.486 25.732 25.668 25.877 h 0.21 c 14.269 0 25.877 -11.608 25.877 -25.877 v -15.933 H 437.141 z" stroke-linecap="round"/>
</g>
		<g transform="matrix(1 0 0 1 88.722 -64.391)" id="Layer_1">
<path style="stroke: none; stroke-width: 1; stroke-dasharray: none; stroke-linecap: butt; stroke-dashoffset: 0; stroke-linejoin: miter; stroke-miterlimit: 4; is-custom-font: none; font-file-url: none; fill: rgb(199,207,226); fill-rule: nonzero; opacity: 1;" transform=" translate(-344.722, -191.609)" d="M 344.722 212.514 c 14.269 0 25.877 -11.608 25.877 -25.877 v -15.933 h -51.754 v 15.933 C 318.845 200.905 330.453 212.514 344.722 212.514 z" stroke-linecap="round"/>
</g>
		<g transform="matrix(1 0 0 1 -29.5745 -64.391)" id="Layer_1">
<path style="stroke: none; stroke-width: 1; stroke-dasharray: none; stroke-linecap: butt; stroke-dashoffset: 0; stroke-linejoin: miter; stroke-miterlimit: 4; is-custom-font: none; font-file-url: none; fill: rgb(199,207,226); fill-rule: nonzero; opacity: 1;" transform=" translate(-226.4255, -191.609)" d="M 200.549 186.637 c 0 14.269 11.608 25.877 25.877 25.877 c 14.269 0 25.877 -11.608 25.877 -25.877 v -15.933 h -51.755 V 186.637 z" stroke-linecap="round"/>
</g>
		<g transform="matrix(1 0 0 1 -147.87 -64.391)" id="Layer_1">
<path style="stroke: none; stroke-width: 1; stroke-dasharray: none; stroke-linecap: butt; stroke-dashoffset: 0; stroke-linejoin: miter; stroke-miterlimit: 4; is-custom-font: none; font-file-url: none; fill: rgb(199,207,226); fill-rule: nonzero; opacity: 1;" transform=" translate(-108.13, -191.609)" d="M 82.253 186.637 c 0 14.269 11.608 25.877 25.877 25.877 s 25.877 -11.608 25.877 -25.877 v -15.933 H 82.253 V 186.637 z" stroke-linecap="round"/>
</g>
		<g transform="matrix(1 0 0 1 -140.8125 -113.521)" id="Layer_1">
<polygon style="stroke: none; stroke-width: 1; stroke-dasharray: none; stroke-linecap: butt; stroke-dashoffset: 0; stroke-linejoin: miter; stroke-miterlimit: 4; is-custom-font: none; font-file-url: none; fill: rgb(239,242,250); fill-rule: nonzero; opacity: 1;" points="30.6735,-20.745 -10.8835,-20.745 -30.6735,20.745 19.8595,20.745 "/>
</g>
		<g transform="matrix(1 0 0 1 -29.0725 -113.521)" id="Layer_1">
<polygon style="stroke: none; stroke-width: 1; stroke-dasharray: none; stroke-linecap: butt; stroke-dashoffset: 0; stroke-linejoin: miter; stroke-miterlimit: 4; is-custom-font: none; font-file-url: none; fill: rgb(239,242,250); fill-rule: nonzero; opacity: 1;" points="25.7825,-20.745 -22.6965,-20.745 -25.7825,20.745 25.7825,20.745 "/>
</g>
		<g transform="matrix(1 0 0 1 87.0595 -113.521)" id="Layer_1">
<polygon style="stroke: none; stroke-width: 1; stroke-dasharray: none; stroke-linecap: butt; stroke-dashoffset: 0; stroke-linejoin: miter; stroke-miterlimit: 4; is-custom-font: none; font-file-url: none; fill: rgb(239,242,250); fill-rule: nonzero; opacity: 1;" points="27.0565,20.745 16.2585,-20.745 -27.0565,-20.745 -23.9705,20.745 "/>
</g>
		<g transform="matrix(1 0 0 1 195.3585 -113.521)" id="Layer_1">
<polygon style="stroke: none; stroke-width: 1; stroke-dasharray: none; stroke-linecap: butt; stroke-dashoffset: 0; stroke-linejoin: miter; stroke-miterlimit: 4; is-custom-font: none; font-file-url: none; fill: rgb(239,242,250); fill-rule: nonzero; opacity: 1;" points="-14.8645,20.745 34.6545,20.745 9.3775,-20.745 -34.6545,-20.745 "/>
</g>
		<g transform="matrix(1 0 0 1 -207.018 -64.391)" id="Layer_1">
<path style="stroke: none; stroke-width: 1; stroke-dasharray: none; stroke-linecap: butt; stroke-dashoffset: 0; stroke-linejoin: miter; stroke-miterlimit: 4; is-custom-font: none; font-file-url: none; fill: rgb(210,85,90); fill-rule: nonzero; opacity: 1;" transform=" translate(-48.982, -191.609)" d="M 74.859 186.637 v -15.933 H 23.105 v 15.933 c 0 14.269 11.608 25.877 25.877 25.877 h 0.156 h 0.021 C 63.33 212.417 74.859 200.808 74.859 186.637 z" stroke-linecap="round"/>
</g>
		<g transform="matrix(1 0 0 1 -88.7225 -64.391)" id="Layer_1">
<path style="stroke: none; stroke-width: 1; stroke-dasharray: none; stroke-linecap: butt; stroke-dashoffset: 0; stroke-linejoin: miter; stroke-miterlimit: 4; is-custom-font: none; font-file-url: none; fill: rgb(210,85,90); fill-rule: nonzero; opacity: 1;" transform=" translate(-167.2775, -191.609)" d="M 167.278 212.514 c 14.269 0 25.877 -11.608 25.877 -25.877 v -15.933 h -51.755 v 15.933 C 141.401 200.905 153.009 212.514 167.278 212.514 z" stroke-linecap="round"/>
</g>
		<g transform="matrix(1 0 0 1 29.5735 -64.391)" id="Layer_1">
<path style="stroke: none; stroke-width: 1; stroke-dasharray: none; stroke-linecap: butt; stroke-dashoffset: 0; stroke-linejoin: miter; stroke-miterlimit: 4; is-custom-font: none; font-file-url: none; fill: rgb(210,85,90); fill-rule: nonzero; opacity: 1;" transform=" translate(-285.5735, -191.609)" d="M 259.697 186.637 c 0 14.269 11.608 25.877 25.877 25.877 c 14.269 0 25.877 -11.608 25.877 -25.877 v -15.933 h -51.755 V 186.637 z" stroke-linecap="round"/>
</g>
		<g transform="matrix(1 0 0 1 147.8695 -64.391)" id="Layer_1">
<path style="stroke: none; stroke-width: 1; stroke-dasharray: none; stroke-linecap: butt; stroke-dashoffset: 0; stroke-linejoin: miter; stroke-miterlimit: 4; is-custom-font: none; font-file-url: none; fill: rgb(210,85,90); fill-rule: nonzero; opacity: 1;" transform=" translate(-403.8695, -191.609)" d="M 403.87 212.514 c 14.269 0 25.877 -11.608 25.877 -25.877 v -15.933 h -51.755 v 15.933 C 377.993 200.905 389.601 212.514 403.87 212.514 z" stroke-linecap="round"/>
</g>
		<g transform="matrix(1 0 0 1 141.6245 -113.521)" id="Layer_1">
<polygon style="stroke: none; stroke-width: 1; stroke-dasharray: none; stroke-linecap: butt; stroke-dashoffset: 0; stroke-linejoin: miter; stroke-miterlimit: 4; is-custom-font: none; font-file-url: none; fill: rgb(255,100,100); fill-rule: nonzero; opacity: 1;" points="30.6735,20.745 10.8845,-20.745 -30.6735,-20.745 -19.8585,20.745 "/>
</g>
		<g transform="matrix(1 0 0 1 29.8855 -113.521)" id="Layer_1">
<polygon style="stroke: none; stroke-width: 1; stroke-dasharray: none; stroke-linecap: butt; stroke-dashoffset: 0; stroke-linejoin: miter; stroke-miterlimit: 4; is-custom-font: none; font-file-url: none; fill: rgb(255,100,100); fill-rule: nonzero; opacity: 1;" points="22.6975,-20.745 -25.7825,-20.745 -25.7825,20.745 25.7825,20.745 "/>
</g>
		<g transform="matrix(1 0 0 1 -86.2465 -113.521)" id="Layer_1">
<polygon style="stroke: none; stroke-width: 1; stroke-dasharray: none; stroke-linecap: butt; stroke-dashoffset: 0; stroke-linejoin: miter; stroke-miterlimit: 4; is-custom-font: none; font-file-url: none; fill: rgb(255,100,100); fill-rule: nonzero; opacity: 1;" points="27.0565,-20.745 -16.2585,-20.745 -27.0565,20.745 23.9715,20.745 "/>
</g>
		<g transform="matrix(1 0 0 1 -194.9525 -113.521)" id="Layer_1">
<polygon style="stroke: none; stroke-width: 1; stroke-dasharray: none; stroke-linecap: butt; stroke-dashoffset: 0; stroke-linejoin: miter; stroke-miterlimit: 4; is-custom-font: none; font-file-url: none; fill: rgb(255,100,100); fill-rule: nonzero; opacity: 1;" points="35.0605,-20.745 -9.8045,-20.745 -11.6005,-17.764 -35.0605,20.745 15.2715,20.745 "/>
</g>
		<g transform="matrix(1 0 0 1 -78.969 88.8455)" id="Layer_1">
<rect style="stroke: none; stroke-width: 1; stroke-dasharray: none; stroke-linecap: butt; stroke-dashoffset: 0; stroke-linejoin: miter; stroke-miterlimit: 4; is-custom-font: none; font-file-url: none; fill: rgb(160,210,240); fill-rule: nonzero; opacity: 1;" x="-84.822" y="-75.1425" rx="0" ry="0" width="169.644" height="150.285"/>
</g>
		<g transform="matrix(1 0 0 1 107.9765 123.145)" id="Layer_1">
<path style="stroke: none; stroke-width: 1; stroke-dasharray: none; stroke-linecap: butt; stroke-dashoffset: 0; stroke-linejoin: miter; stroke-miterlimit: 4; is-custom-font: none; font-file-url: none; fill: rgb(143,150,172); fill-rule: nonzero; opacity: 1;" transform=" translate(-363.9765, -379.145)" d="M 308.063 488.587 h 111.827 V 269.703 H 308.063 V 488.587 z M 332.358 371.776 c 0.675 -0.675 1.649 -1.078 2.605 -1.078 c 0.964 0 1.943 0.404 2.617 1.078 c 0.675 0.675 1.079 1.655 1.079 2.619 c 0 0.96 -0.398 1.928 -1.078 2.605 c -0.684 0.684 -1.662 1.092 -2.619 1.092 c -0.953 0 -1.921 -0.403 -2.62 -1.107 c -0.674 -0.669 -1.077 -1.638 -1.077 -2.59 C 331.266 373.438 331.674 372.46 332.358 371.776 z" stroke-linecap="round"/>
</g>
		<g transform="matrix(1 0 0 1 0 -172.3255)" id="Layer_1">
<path style="stroke: none; stroke-width: 1; stroke-dasharray: none; stroke-linecap: butt; stroke-dashoffset: 0; stroke-linejoin: miter; stroke-miterlimit: 4; is-custom-font: none; font-file-url: none; fill: rgb(255,215,130); fill-rule: nonzero; opacity: 1;" transform=" translate(-256, -83.6745)" d="M 459.112 53.011 h -31.7 l -1.192 4.623 c -3.79 14.704 -17.036 24.975 -32.209 24.975 H 118.506 c -15.189 0 -28.438 -10.268 -32.22 -24.973 l -1.19 -4.626 H 52.888 v 61.329 h 406.224 L 459.112 53.011 L 459.112 53.011 z" stroke-linecap="round"/>
</g>
		<g transform="matrix(1 0 0 1 0.2595 -206.685)" id="Layer_1">
<path style="stroke: none; stroke-width: 1; stroke-dasharray: none; stroke-linecap: butt; stroke-dashoffset: 0; stroke-linejoin: miter; stroke-miterlimit: 4; is-custom-font: none; font-file-url: none; fill: rgb(255,175,95); fill-rule: nonzero; opacity: 1;" transform=" translate(-256.2595, -49.315)" d="M 118.506 75.217 h 275.507 c 14.269 0 25.877 -11.608 25.877 -25.877 c 0 -14.295 -11.608 -25.927 -25.877 -25.927 H 118.506 c -14.269 0 -25.877 11.608 -25.877 25.877 C 92.628 63.585 104.236 75.217 118.506 75.217 z" stroke-linecap="round"/>
</g>
		<g transform="matrix(1 0 0 1 -0.001 89.988)" id="Layer_1">
<path style="stroke: none; stroke-width: 1; stroke-dasharray: none; stroke-linecap: butt; stroke-dashoffset: 0; stroke-linejoin: miter; stroke-miterlimit: 4; is-custom-font: none; font-file-url: none; fill: rgb(255,215,130); fill-rule: nonzero; opacity: 1;" transform=" translate(-255.999, -345.988)" d="M 438.059 208.616 l -4.62 -5.222 l -4.614 5.227 c -6.331 7.172 -15.427 11.286 -24.954 11.286 c -9.528 0 -18.624 -4.113 -24.956 -11.286 l -4.618 -5.232 l -4.62 5.232 c -6.331 7.172 -15.427 11.286 -24.954 11.286 c -9.528 0 -18.624 -4.113 -24.956 -11.286 l -4.618 -5.232 l -4.62 5.232 c -6.331 7.172 -15.427 11.286 -24.954 11.286 s -18.624 -4.113 -24.956 -11.286 l -4.618 -5.232 l -4.62 5.232 c -6.331 7.172 -15.427 11.286 -24.954 11.286 c -9.528 0 -18.624 -4.113 -24.956 -11.286 l -4.618 -5.232 l -4.62 5.232 c -6.331 7.172 -15.427 11.286 -24.954 11.286 c -9.528 0 -18.624 -4.113 -24.956 -11.286 l -4.618 -5.232 l -4.62 5.232 c -6.331 7.172 -15.427 11.286 -24.954 11.286 s -18.624 -4.113 -24.956 -11.286 l -4.614 -5.227 l -4.62 5.222 c -4.411 4.986 -10.104 8.509 -16.465 10.188 l -4.589 1.211 v 268.571 h 247.781 V 266.006 c 0 -2.038 1.659 -3.697 3.697 -3.697 h 119.22 c 2.038 0 3.697 1.659 3.697 3.697 v 222.581 h 31.829 v -268.57 l -4.589 -1.211 C 448.163 217.126 442.47 213.603 438.059 208.616 z M 269.247 423.685 c 0 2.038 -1.659 3.697 -3.697 3.697 H 88.513 c -2.038 0 -3.697 -1.659 -3.697 -3.697 V 266.006 c 0 -2.038 1.659 -3.697 3.697 -3.697 H 265.55 c 2.038 0 3.697 1.659 3.697 3.697 V 423.685 z" stroke-linecap="round"/>
</g>
		<g transform="matrix(1 0 0 1 -0.0005 0.0005)" id="Layer_1">
<path style="stroke: none; stroke-width: 1; stroke-dasharray: none; stroke-linecap: butt; stroke-dashoffset: 0; stroke-linejoin: miter; stroke-miterlimit: 4; is-custom-font: none; font-file-url: none; fill: rgb(0,0,0); fill-rule: nonzero; opacity: 1;" transform=" translate(-255.9995, -256.0005)" d="M 502.142 482.426 h -29.475 V 224.873 c 17.104 -4.313 29.784 -19.827 29.784 -38.237 v -19.038 c 0.012 -0.222 0.025 -0.444 0.025 -0.678 c 0 -2.119 -0.665 -4.079 -1.799 -5.681 l -28.009 -45.988 V 49.315 c 0 -5.447 -4.411 -9.858 -9.858 -9.858 h -30.609 c -4.374 -17.005 -19.827 -29.599 -38.187 -29.599 H 118.506 c -18.348 0 -33.788 12.581 -38.175 29.599 H 49.191 c -5.447 0 -9.858 4.411 -9.858 9.858 v 65.938 l -28.342 46.53 c -0.789 1.306 -1.257 2.736 -1.392 4.214 c -0.037 0.333 -0.049 0.665 -0.049 1.01 v 19.63 c 0 18.41 12.68 33.924 29.783 38.237 v 257.553 H 9.858 c -5.447 0 -9.858 4.411 -9.858 9.858 c 0 5.434 4.411 9.858 9.858 9.858 h 39.333 h 255.174 h 119.22 h 39.223 h 39.333 c 5.447 0 9.858 -4.424 9.858 -9.858 C 512 486.837 507.589 482.426 502.142 482.426 z M 482.734 186.637 c 0 10.868 -8.848 19.716 -19.716 19.716 c -0.074 0 -0.136 0 -0.21 0 c -10.77 -0.111 -19.507 -8.921 -19.507 -19.716 v -9.772 h 39.432 V 186.637 z M 108.192 127.895 h 29.697 l -7.603 29.167 H 94.279 L 108.192 127.895 z M 190.173 127.895 l -2.169 29.167 h -37.337 l 7.591 -29.167 H 190.173 z M 404.622 127.895 l 13.912 29.167 h -36.006 l -7.603 -29.167 H 404.622 z M 354.555 127.895 l 7.591 29.167 h -37.337 l -2.169 -29.167 H 354.555 z M 302.862 127.895 l 2.169 29.167 h -38.767 v -29.167 H 302.862 z M 246.549 157.063 h -38.767 l 2.169 -29.167 h 36.598 L 246.549 157.063 L 246.549 157.063 z M 88.414 176.865 h 39.432 v 9.772 c 0 10.868 -8.848 19.716 -19.716 19.716 s -19.716 -8.848 -19.716 -19.716 V 176.865 z M 147.562 176.865 h 39.432 v 9.772 c 0 10.868 -8.848 19.716 -19.716 19.716 s -19.716 -8.848 -19.716 -19.716 V 176.865 z M 206.71 176.865 h 39.432 v 9.772 c 0 10.868 -8.848 19.716 -19.716 19.716 s -19.716 -8.848 -19.716 -19.716 V 176.865 z M 265.858 176.865 h 39.432 v 9.772 c 0 10.868 -8.848 19.716 -19.716 19.716 c -10.868 0 -19.716 -8.848 -19.716 -19.716 V 176.865 z M 325.006 176.865 h 39.432 v 9.772 c 0 10.868 -8.848 19.716 -19.716 19.716 c -10.868 0 -19.716 -8.848 -19.716 -19.716 V 176.865 z M 384.154 176.865 h 39.432 v 9.772 c 0 10.868 -8.848 19.716 -19.716 19.716 c -10.868 0 -19.716 -8.848 -19.716 -19.716 V 176.865 z M 475.045 157.063 h -34.663 l -13.912 -29.167 h 30.806 L 475.045 157.063 z M 118.506 29.574 h 275.507 c 10.868 0 19.716 8.835 19.716 19.765 c 0 10.868 -8.848 19.716 -19.716 19.716 H 118.506 c -10.881 0 -19.716 -8.848 -19.716 -19.765 C 98.79 38.409 107.625 29.574 118.506 29.574 z M 59.049 59.173 h 21.269 c 4.374 17.005 19.827 29.599 38.187 29.599 h 275.507 c 18.348 0 33.788 -12.581 38.175 -29.599 h 20.763 v 49.007 h -42.106 h -48.662 h -49.894 h -55.883 h -55.895 H 150.63 h -48.649 H 59.049 V 59.173 z M 54.613 128.08 l 0.111 -0.185 h 31.62 l -13.912 29.167 H 36.955 L 54.613 128.08 z M 29.266 186.637 v -9.772 h 39.432 v 9.772 c 0 10.819 -8.774 19.642 -19.58 19.716 c -0.049 0 -0.086 0 -0.136 0 C 38.114 206.353 29.266 197.505 29.266 186.637 z M 314.224 482.426 V 275.864 h 99.504 v 206.562 H 314.224 z M 423.586 256.148 h -119.22 c -5.447 0 -9.858 4.411 -9.858 9.858 v 216.42 H 59.049 V 224.762 c 7.652 -2.021 14.405 -6.297 19.507 -12.064 c 7.233 8.194 17.806 13.37 29.574 13.37 s 22.341 -5.175 29.574 -13.37 c 7.233 8.194 17.806 13.37 29.574 13.37 s 22.341 -5.175 29.574 -13.37 c 7.233 8.194 17.806 13.37 29.574 13.37 c 11.768 0 22.341 -5.175 29.574 -13.37 c 7.233 8.194 17.806 13.37 29.574 13.37 c 11.768 0 22.341 -5.175 29.574 -13.37 c 7.233 8.194 17.806 13.37 29.574 13.37 c 11.768 0 22.341 -5.175 29.574 -13.37 c 7.233 8.194 17.806 13.37 29.574 13.37 s 22.341 -5.175 29.574 -13.37 c 5.102 5.767 11.854 10.043 19.507 12.064 v 257.664 h -19.507 v -216.42 C 433.444 260.559 429.033 256.148 423.586 256.148 z" stroke-linecap="round"/>
</g>
		<g transform="matrix(1 0 0 1 78.963 118.395)" id="Layer_1">
<path style="stroke: none; stroke-width: 1; stroke-dasharray: none; stroke-linecap: butt; stroke-dashoffset: 0; stroke-linejoin: miter; stroke-miterlimit: 4; is-custom-font: none; font-file-url: none; fill: rgb(0,0,0); fill-rule: nonzero; opacity: 1;" transform=" translate(-334.963, -374.395)" d="M 334.963 364.537 c -2.588 0 -5.126 1.047 -6.962 2.883 c -1.836 1.836 -2.896 4.374 -2.896 6.975 c 0 2.588 1.06 5.139 2.896 6.962 c 1.824 1.836 4.374 2.896 6.962 2.896 c 2.6 0 5.139 -1.06 6.975 -2.896 c 1.836 -1.824 2.883 -4.374 2.883 -6.962 c 0 -2.6 -1.047 -5.138 -2.883 -6.975 C 340.101 365.584 337.563 364.537 334.963 364.537 z" stroke-linecap="round"/>
</g>
		<g transform="matrix(1 0 0 1 -78.9685 88.8455)" id="Layer_1">
<path style="stroke: none; stroke-width: 1; stroke-dasharray: none; stroke-linecap: butt; stroke-dashoffset: 0; stroke-linejoin: miter; stroke-miterlimit: 4; is-custom-font: none; font-file-url: none; fill: rgb(0,0,0); fill-rule: nonzero; opacity: 1;" transform=" translate(-177.0315, -344.8455)" d="M 265.55 256.148 H 88.513 c -5.434 0 -9.858 4.411 -9.858 9.858 v 157.679 c 0 5.447 4.424 9.858 9.858 9.858 H 265.55 c 5.447 0 9.858 -4.411 9.858 -9.858 V 266.006 C 275.408 260.559 270.996 256.148 265.55 256.148 z M 255.692 413.827 H 98.371 V 275.864 h 157.321 V 413.827 z" stroke-linecap="round"/>
</g>
</g>
</g>
</svg>